<svg width="55" height="49" viewBox="0 0 55 49" fill="none" xmlns="http://www.w3.org/2000/svg">
<path d="M10.1902 2.75842L21.6264 22.2201C22.4534 23.6275 22.4534 25.3724 21.6264 26.7798L10.1902 46.2415C9.60954 47.2296 8.54919 47.8363 7.40316 47.8363C4.91477 47.8363 3.35949 45.1426 4.60364 42.9876L13.6893 27.2499C14.6717 25.5482 14.6717 23.4517 13.6893 21.7501L4.60365 6.01236C3.3595 3.85731 4.91477 1.16357 7.40316 1.16357C8.54919 1.16357 9.60955 1.77036 10.1902 2.75842Z" stroke="#8492A6"/>
<path d="M25.9171 2.75842L37.3534 22.2201C38.1804 23.6275 38.1804 25.3724 37.3534 26.7798L25.9171 46.2415C25.3365 47.2296 24.2761 47.8363 23.1301 47.8363C20.6417 47.8363 19.0865 45.1426 20.3306 42.9876L29.4163 27.2499C30.3987 25.5482 30.3987 23.4517 29.4163 21.7501L20.3306 6.01236C19.0865 3.85731 20.6417 1.16357 23.1301 1.16357C24.2761 1.16357 25.3365 1.77036 25.9171 2.75842Z" stroke="#8492A6"/>
<path d="M41.6441 2.75842L53.0803 22.2201C53.9074 23.6275 53.9074 25.3724 53.0803 26.7798L41.6441 46.2415C41.0635 47.2296 40.0031 47.8363 38.8571 47.8363C36.3687 47.8363 34.8134 45.1426 36.0576 42.9876L45.1433 27.2499C46.1256 25.5482 46.1256 23.4517 45.1433 21.7501L36.0576 6.01236C34.8134 3.85731 36.3687 1.16357 38.8571 1.16357C40.0031 1.16357 41.0635 1.77036 41.6441 2.75842Z" stroke="#8492A6"/>
</svg>
