<svg width="72" height="63" viewBox="0 0 72 63" fill="none" xmlns="http://www.w3.org/2000/svg">
<path d="M12.3649 2.6869L27.9566 29.22C28.7836 30.6274 28.7836 32.3723 27.9566 33.7797L12.3649 60.3129C11.5688 61.6677 10.1148 62.4998 8.54332 62.4998C5.13114 62.4998 2.9985 58.806 4.70452 55.851L17.1753 34.2498C18.1577 32.5481 18.1577 30.4517 17.1753 28.75L4.70452 7.14881C2.99851 4.19375 5.13115 0.499999 8.54332 0.499999C10.1148 0.499999 11.5688 1.33204 12.3649 2.6869Z" stroke="#D3DCE6"/>
<path d="M33.1481 2.6869L48.7397 29.22C49.5667 30.6274 49.5667 32.3723 48.7397 33.7797L33.1481 60.3129C32.3519 61.6677 30.8979 62.4998 29.3265 62.4998C25.9143 62.4998 23.7816 58.806 25.4877 55.851L37.9585 34.2498C38.9409 32.5481 38.9409 30.4517 37.9585 28.75L25.4877 7.14881C23.7816 4.19375 25.9143 0.499999 29.3265 0.499999C30.8979 0.499999 32.3519 1.33204 33.1481 2.6869Z" stroke="#D3DCE6"/>
<path d="M53.9312 2.6869L69.5229 29.22C70.3499 30.6274 70.3499 32.3723 69.5229 33.7797L53.9312 60.3129C53.1351 61.6677 51.6811 62.4998 50.1096 62.4998C46.6974 62.4998 44.5648 58.806 46.2708 55.851L58.7416 34.2498C59.724 32.5481 59.724 30.4517 58.7416 28.75L46.2708 7.14881C44.5648 4.19375 46.6974 0.499999 50.1096 0.499999C51.6811 0.499999 53.1351 1.33204 53.9312 2.6869Z" stroke="#D3DCE6"/>
</svg>
