<svg width="93" height="98" viewBox="0 0 93 98" fill="none" xmlns="http://www.w3.org/2000/svg">
<path d="M1.51376 2.73752L27.1055 46.7375C27.919 48.1362 27.919 49.8638 27.1055 51.2625L1.51376 95.2625C0.708042 96.6477 -0.773581 97.5 -2.37613 97.5L-8.38411 97.5C-11.8393 97.5 -14.0055 93.7673 -12.2912 90.7674L10.0165 51.7288C10.9827 50.0379 10.9827 47.9621 10.0165 46.2712L-12.2912 7.23261C-14.0055 4.23266 -11.8393 0.499998 -8.38411 0.499998L-2.37612 0.499999C-0.773579 0.499999 0.708046 1.35225 1.51376 2.73752Z" stroke="#E5E9F2"/>
<path d="M33.5133 2.73752L59.1051 46.7375C59.9186 48.1362 59.9186 49.8638 59.1051 51.2625L33.5133 95.2625C32.7076 96.6477 31.226 97.5 29.6234 97.5L23.6155 97.5C20.1603 97.5 17.9941 93.7673 19.7084 90.7674L42.0161 51.7288C42.9823 50.0379 42.9823 47.9621 42.0161 46.2712L19.7084 7.23261C17.9941 4.23266 20.1603 0.499998 23.6155 0.499998L29.6234 0.499999C31.226 0.499999 32.7076 1.35225 33.5133 2.73752Z" stroke="#E5E9F2"/>
<path d="M65.5125 2.73752L91.1042 46.7375C91.9177 48.1362 91.9177 49.8638 91.1042 51.2625L65.5125 95.2625C64.7068 96.6477 63.2251 97.5 61.6226 97.5L55.6146 97.5C52.1594 97.5 49.9933 93.7673 51.7075 90.7674L74.0152 51.7288C74.9814 50.0379 74.9814 47.9621 74.0152 46.2712L51.7075 7.23261C49.9933 4.23266 52.1594 0.499998 55.6146 0.499998L61.6226 0.499999C63.2251 0.499999 64.7068 1.35225 65.5125 2.73752Z" stroke="#E5E9F2"/>
</svg>
