<svg width="103" height="142" viewBox="0 0 103 142" fill="none" xmlns="http://www.w3.org/2000/svg">
<g opacity="0.5">
<rect width="7.1681" height="7.1681" rx="3.58405" transform="matrix(1 0 0 -1 0 7.16809)" fill="#3C4858"/>
<rect width="7.1681" height="7.1681" rx="3.58405" transform="matrix(1 0 0 -1 22.472 7.16809)" fill="#3C4858"/>
<rect width="7.1681" height="7.1681" rx="3.58405" transform="matrix(1 0 0 -1 44.9442 7.16809)" fill="#3C4858"/>
<rect width="7.1681" height="7.1681" rx="3.58405" transform="matrix(1 0 0 -1 67.4159 7.16809)" fill="#3C4858"/>
<rect width="7.1681" height="7.1681" rx="3.58405" transform="matrix(1 0 0 -1 89.888 7.16809)" fill="#3C4858"/>
<rect width="7.1681" height="7.1681" rx="3.58405" transform="matrix(1 0 0 -1 0 29.6401)" fill="#3C4858"/>
<rect width="7.1681" height="7.1681" rx="3.58405" transform="matrix(1 0 0 -1 22.472 29.6401)" fill="#3C4858"/>
<rect width="7.1681" height="7.1681" rx="3.58405" transform="matrix(1 0 0 -1 44.9442 29.6401)" fill="#3C4858"/>
<rect width="7.1681" height="7.1681" rx="3.58405" transform="matrix(1 0 0 -1 67.4159 29.6401)" fill="#3C4858"/>
<rect width="7.1681" height="7.1681" rx="3.58405" transform="matrix(1 0 0 -1 89.888 29.6401)" fill="#3C4858"/>
<rect width="7.1681" height="7.1681" rx="3.58405" transform="matrix(1 0 0 -1 0 52.1121)" fill="#3C4858"/>
<rect width="7.1681" height="7.1681" rx="3.58405" transform="matrix(1 0 0 -1 22.472 52.1121)" fill="#3C4858"/>
<rect width="7.1681" height="7.1681" rx="3.58405" transform="matrix(1 0 0 -1 44.9442 52.1121)" fill="#3C4858"/>
<rect width="7.1681" height="7.1681" rx="3.58405" transform="matrix(1 0 0 -1 67.4159 52.1121)" fill="#3C4858"/>
<rect width="7.1681" height="7.1681" rx="3.58405" transform="matrix(1 0 0 -1 89.888 52.1121)" fill="#3C4858"/>
<rect width="7.1681" height="7.1681" rx="3.58405" transform="matrix(1 0 0 -1 0 74.584)" fill="#3C4858"/>
<rect width="7.1681" height="7.1681" rx="3.58405" transform="matrix(1 0 0 -1 22.472 74.584)" fill="#3C4858"/>
<rect width="7.1681" height="7.1681" rx="3.58405" transform="matrix(1 0 0 -1 44.9442 74.584)" fill="#3C4858"/>
<rect width="7.1681" height="7.1681" rx="3.58405" transform="matrix(1 0 0 -1 67.4159 74.584)" fill="#3C4858"/>
<rect width="7.1681" height="7.1681" rx="3.58405" transform="matrix(1 0 0 -1 89.888 74.584)" fill="#3C4858"/>
<rect width="7.1681" height="7.1681" rx="3.58405" transform="matrix(1 0 0 -1 0 97.056)" fill="#3C4858"/>
<rect width="7.1681" height="7.1681" rx="3.58405" transform="matrix(1 0 0 -1 22.472 97.056)" fill="#3C4858"/>
<rect width="7.1681" height="7.1681" rx="3.58405" transform="matrix(1 0 0 -1 44.9442 97.056)" fill="#3C4858"/>
<rect width="7.1681" height="7.1681" rx="3.58405" transform="matrix(1 0 0 -1 67.4159 97.056)" fill="#3C4858"/>
<rect width="7.1681" height="7.1681" rx="3.58405" transform="matrix(1 0 0 -1 89.888 97.056)" fill="#3C4858"/>
<rect width="7.1681" height="7.1681" rx="3.58405" transform="matrix(1 0 0 -1 0 119.528)" fill="#3C4858"/>
<rect width="7.1681" height="7.1681" rx="3.58405" transform="matrix(1 0 0 -1 22.472 119.528)" fill="#3C4858"/>
<rect width="7.1681" height="7.1681" rx="3.58405" transform="matrix(1 0 0 -1 44.9442 119.528)" fill="#3C4858"/>
<rect width="7.1681" height="7.1681" rx="3.58405" transform="matrix(1 0 0 -1 67.4159 119.528)" fill="#3C4858"/>
<rect width="7.1681" height="7.1681" rx="3.58405" transform="matrix(1 0 0 -1 89.888 119.528)" fill="#3C4858"/>
<rect width="7.1681" height="7.1681" rx="3.58405" transform="matrix(1 0 0 -1 0 142)" fill="#3C4858"/>
<rect width="7.1681" height="7.1681" rx="3.58405" transform="matrix(1 0 0 -1 22.472 142)" fill="#3C4858"/>
<rect width="7.1681" height="7.1681" rx="3.58405" transform="matrix(1 0 0 -1 44.9442 142)" fill="#3C4858"/>
<rect width="7.1681" height="7.1681" rx="3.58405" transform="matrix(1 0 0 -1 67.4159 142)" fill="#3C4858"/>
<rect width="7.1681" height="7.1681" rx="3.58405" transform="matrix(1 0 0 -1 89.888 142)" fill="#3C4858"/>
</g>
</svg>
